<svg width="20" height="20" viewBox="0 0 20 20" fill="none" xmlns="http://www.w3.org/2000/svg">
<path d="M15.0159 17.7931L13.9277 16.6942C12.9695 15.7578 12.2015 15.0656 12.928 13.6996L12.3034 13.0922C12.2483 13.0467 12.2618 13.0664 12.2025 13.1108L12.0893 13.1936C11.7816 13.4151 11.473 13.6334 11.1446 13.8238C7.04785 16.2006 1.77545 14.187 0.349662 9.65992C-1.1209 4.99011 2.22245 0.270762 7.09255 0.00586815C7.4646 -0.00447939 7.84082 -0.00447947 8.21184 0.0338064C13.4747 0.588441 16.5968 6.47099 13.8415 11.0828C13.6212 11.4522 13.3656 11.7802 13.1016 12.1186L13.7023 12.727C13.7927 12.8129 13.7802 12.8553 13.8914 12.7943C14.6221 12.3907 15.442 12.6763 16.0064 13.2196L19.1003 16.2979C19.3154 16.511 19.5534 16.7232 19.7187 16.9798C20.7289 18.5495 18.8228 20.7246 17.1039 19.7633C16.7089 19.5429 16.3795 19.1507 16.0615 18.833L15.0159 17.7931ZM7.36786 2.23063C5.93989 2.28133 4.62723 2.82147 3.64416 3.88001C0.834091 6.90457 2.52694 11.9654 6.70485 12.5118C6.95635 12.545 7.20785 12.5481 7.46145 12.5481C8.85824 12.5305 10.1334 11.9955 11.1083 10.998C14.2719 7.76127 11.9584 2.13447 7.36786 2.23063Z" fill="white"/>
</svg>
