<svg width="321" height="265" viewBox="0 0 321 265" fill="none" xmlns="http://www.w3.org/2000/svg">
<path d="M261.486 47.5424C261.486 45.0936 261.242 42.7058 260.769 40.4019L272.72 33.5055L261.532 14.1285L249.618 21.002C246.016 17.775 241.742 15.2728 237.041 13.7165V0H214.656V13.7241C212.565 14.4183 210.558 15.288 208.658 16.3332C208.429 16.4552 208.207 16.5925 207.986 16.7222C207.765 16.8519 207.536 16.974 207.314 17.1113C205.46 18.2327 203.697 19.5296 202.056 20.9943L190.165 14.1285L178.977 33.5055L190.868 40.3714C190.417 42.5227 190.173 44.6969 190.135 46.8634C190.135 47.1228 190.135 47.3898 190.135 47.6492C190.135 47.9009 190.135 48.1527 190.135 48.4121C190.181 50.5786 190.425 52.7528 190.868 54.9118L178.977 61.7776L190.165 81.1547L202.056 74.2888C205.75 77.5844 210.054 80.0256 214.649 81.5361V95.2831H237.033V81.4903C239.269 80.7427 241.46 79.7662 243.581 78.538C245.749 77.2869 247.741 75.8374 249.534 74.2278L261.524 81.147L272.713 61.77L260.723 54.8507C261.211 52.4935 261.478 50.0446 261.478 47.5424H261.486ZM240.506 63.311C240.407 63.4026 240.315 63.4865 240.216 63.578C239.827 63.9289 239.43 64.257 239.025 64.5774C238.834 64.7223 238.644 64.8673 238.445 65.0122C238.109 65.2564 237.774 65.4852 237.422 65.7065C237.148 65.8819 236.865 66.0497 236.583 66.2176C236.301 66.3854 236.011 66.538 235.721 66.6906C235.354 66.8813 234.98 67.0567 234.606 67.2246C234.385 67.3237 234.164 67.4153 233.942 67.5068C233.461 67.6976 232.981 67.8806 232.485 68.0408C232.362 68.079 232.233 68.1248 232.111 68.1629C230.134 68.7579 228.035 69.0936 225.86 69.0936C213.954 69.0936 204.3 59.4432 204.3 47.5424C204.3 44.6282 204.887 41.8513 205.933 39.3186C205.986 39.1965 206.032 39.0821 206.086 38.96C206.276 38.5176 206.498 38.0827 206.719 37.6479C206.864 37.3733 207.009 37.1063 207.162 36.8392C207.314 36.5722 207.475 36.3129 207.643 36.0535C207.902 35.6492 208.169 35.2448 208.459 34.8558C208.536 34.749 208.612 34.6498 208.688 34.543C210.36 32.3688 212.474 30.4692 215 29.0121C225.311 23.0617 238.491 26.5938 244.444 36.9003C245.528 38.7846 246.298 40.7604 246.764 42.7744C246.794 42.9041 246.817 43.0262 246.848 43.1559C246.955 43.667 247.046 44.1781 247.115 44.6892C247.146 44.9257 247.176 45.1698 247.199 45.4063C247.245 45.8183 247.275 46.2302 247.291 46.6422C247.306 46.9702 247.313 47.2983 247.313 47.6187C247.313 47.9467 247.313 48.2747 247.291 48.6028C247.268 49.0147 247.245 49.4191 247.199 49.831C247.176 50.0751 247.146 50.3116 247.115 50.5557C247.046 51.0669 246.955 51.578 246.848 52.0815C246.817 52.2112 246.794 52.3409 246.764 52.4706C246.291 54.4846 245.528 56.4604 244.444 58.3447C243.36 60.229 242.025 61.8768 240.513 63.2881L240.506 63.311Z" fill="#EBEBF2"/>
<path d="M314.665 115.682C314.665 114.302 314.528 112.959 314.261 111.654L321 107.764L314.688 96.8394L307.972 100.715C305.942 98.8915 303.53 97.4878 300.882 96.6105V88.875H288.267V96.6105C287.091 96.9996 285.954 97.4955 284.886 98.0829C284.756 98.1515 284.634 98.2278 284.504 98.2965C284.382 98.3728 284.252 98.4414 284.13 98.5177C283.084 99.1509 282.092 99.8833 281.161 100.707L274.46 96.8394L268.149 107.764L274.85 111.632C274.598 112.845 274.46 114.073 274.437 115.293C274.437 115.438 274.437 115.591 274.437 115.736C274.437 115.881 274.437 116.018 274.437 116.163C274.46 117.384 274.598 118.612 274.85 119.825L268.149 123.693L274.46 134.617L281.161 130.749C283.245 132.603 285.672 133.984 288.259 134.831V142.581H300.875V134.808C302.134 134.388 303.37 133.831 304.561 133.145C305.782 132.435 306.904 131.619 307.919 130.719L314.673 134.617L320.985 123.693L314.23 119.794C314.505 118.467 314.658 117.086 314.658 115.675L314.665 115.682ZM302.836 124.57C302.783 124.623 302.729 124.669 302.668 124.722C302.454 124.921 302.225 125.104 301.996 125.287C301.89 125.371 301.783 125.455 301.668 125.531C301.477 125.668 301.287 125.798 301.096 125.92C300.943 126.019 300.783 126.119 300.623 126.21C300.462 126.302 300.302 126.393 300.134 126.477C299.928 126.584 299.722 126.683 299.508 126.782C299.386 126.836 299.257 126.889 299.134 126.942C298.867 127.049 298.593 127.156 298.31 127.24C298.242 127.263 298.173 127.286 298.096 127.309C296.982 127.644 295.799 127.835 294.571 127.835C287.862 127.835 282.42 122.396 282.42 115.69C282.42 114.05 282.749 112.486 283.344 111.052C283.374 110.983 283.397 110.914 283.428 110.853C283.535 110.602 283.657 110.358 283.787 110.113C283.871 109.961 283.947 109.808 284.038 109.656C284.122 109.503 284.214 109.358 284.306 109.213C284.451 108.984 284.603 108.756 284.763 108.534C284.809 108.473 284.847 108.42 284.893 108.359C285.84 107.131 287.03 106.063 288.45 105.246C294.265 101.89 301.691 103.881 305.049 109.694C305.66 110.754 306.095 111.868 306.362 113.005C306.377 113.073 306.392 113.15 306.408 113.218C306.469 113.508 306.515 113.79 306.56 114.08C306.576 114.218 306.591 114.347 306.606 114.485C306.629 114.714 306.644 114.95 306.66 115.179C306.667 115.362 306.675 115.545 306.675 115.728C306.675 115.911 306.675 116.102 306.66 116.285C306.652 116.514 306.629 116.75 306.606 116.979C306.591 117.117 306.576 117.254 306.56 117.384C306.522 117.674 306.469 117.956 306.408 118.246C306.392 118.322 306.377 118.391 306.362 118.467C306.095 119.604 305.667 120.717 305.057 121.778C304.446 122.838 303.691 123.769 302.844 124.57H302.836Z" fill="#EBEBF2"/>
<path d="M69.2523 190.52C68.5578 188.735 67.7031 187.057 66.7033 185.501L73.4881 177.071L59.8116 166.07L53.0497 174.47C49.5009 173.127 45.6696 172.509 41.7926 172.707L37.9003 162.668L21.5297 169.007L25.422 179.047C24.0864 180.145 22.873 181.351 21.774 182.655C21.6442 182.808 21.5221 182.968 21.3924 183.128C21.2626 183.288 21.1329 183.441 21.0108 183.601C19.9728 184.944 19.0494 186.393 18.2633 187.934L7.62432 186.279L4.93024 203.619L15.5692 205.274C15.8516 206.976 16.2866 208.639 16.8742 210.233C16.9429 210.424 17.0193 210.615 17.0956 210.813C17.1643 210.996 17.2329 211.187 17.3093 211.37C17.958 212.941 18.7517 214.46 19.6904 215.917L12.9362 224.301L26.6126 235.301L33.3669 226.917C36.9997 228.275 40.8386 228.847 44.6317 228.649L48.524 238.704L64.8945 232.364L60.9869 222.279C62.4065 221.097 63.7344 219.761 64.9403 218.266C66.169 216.733 67.2146 215.116 68.077 213.43L78.7999 215.093L81.494 197.753L70.7711 196.089C70.4658 194.228 69.9621 192.367 69.2523 190.528V190.52ZM58.3768 207.99C58.331 208.082 58.2852 208.173 58.2394 208.265C58.0563 208.631 57.8578 208.982 57.6518 209.333C57.5526 209.493 57.4534 209.653 57.3465 209.814C57.171 210.088 56.9878 210.348 56.797 210.615C56.6444 210.821 56.4917 211.027 56.3238 211.225C56.1636 211.423 55.9956 211.622 55.8277 211.812C55.614 212.056 55.3927 212.293 55.1638 212.522C55.034 212.659 54.8966 212.789 54.7593 212.919C54.4616 213.193 54.1563 213.468 53.8434 213.72C53.7671 213.788 53.6832 213.849 53.5992 213.91C52.3247 214.91 50.8822 215.741 49.2872 216.359C40.5791 219.731 30.7873 215.405 27.414 206.701C26.5897 204.573 26.231 202.376 26.2768 200.224C26.2768 200.125 26.2768 200.026 26.2844 199.919C26.2997 199.538 26.3302 199.164 26.376 198.782C26.4066 198.546 26.4295 198.302 26.4676 198.065C26.5058 197.829 26.5516 197.592 26.5974 197.356C26.6737 196.982 26.7576 196.616 26.8568 196.25C26.8797 196.151 26.9103 196.051 26.9408 195.96C27.5437 193.892 28.5511 191.909 29.9859 190.131C35.8397 182.861 46.4786 181.709 53.7519 187.561C55.0798 188.629 56.2017 189.864 57.1175 191.199C57.1786 191.283 57.232 191.367 57.2854 191.459C57.5068 191.802 57.7205 192.153 57.9189 192.504C58.0105 192.672 58.1021 192.832 58.186 193.007C58.331 193.297 58.476 193.587 58.6058 193.885C58.705 194.121 58.8042 194.358 58.8958 194.594C58.9874 194.838 59.079 195.075 59.1629 195.319C59.2621 195.624 59.3613 195.929 59.4453 196.242C59.4987 196.425 59.5445 196.608 59.5903 196.791C59.6819 197.188 59.7658 197.585 59.8269 197.981C59.8422 198.081 59.8574 198.187 59.8727 198.287C60.1016 199.889 60.1016 201.552 59.8422 203.238C59.5827 204.924 59.0713 206.51 58.3692 207.967L58.3768 207.99Z" fill="#EBEBF2"/>
<path d="M154.57 39.3644H1.95378C0.877675 39.3644 0 38.4871 0 37.4114C0 36.3358 0.877675 35.4584 1.95378 35.4584H154.57C155.646 35.4584 156.524 36.3358 156.524 37.4114C156.524 38.4871 155.646 39.3644 154.57 39.3644Z" fill="#EBEBF2"/>
<path d="M154.57 53.3555H1.95378C0.877675 53.3555 0 52.4782 0 51.4025C0 50.3269 0.877675 49.4496 1.95378 49.4496H154.57C155.646 49.4496 156.524 50.3269 156.524 51.4025C156.524 52.4782 155.646 53.3555 154.57 53.3555Z" fill="#EBEBF2"/>
<path d="M154.57 67.339H1.95378C0.877675 67.339 0 66.4617 0 65.386C0 64.3104 0.877675 63.4331 1.95378 63.4331H154.57C155.646 63.4331 156.524 64.3104 156.524 65.386C156.524 66.4617 155.646 67.339 154.57 67.339Z" fill="#EBEBF2"/>
<path d="M154.57 77.4242H1.95378C0.874737 77.4242 0 78.2986 0 79.3772C0 80.4558 0.874737 81.3301 1.95378 81.3301H154.57C155.649 81.3301 156.524 80.4558 156.524 79.3772C156.524 78.2986 155.649 77.4242 154.57 77.4242Z" fill="#EBEBF2"/>
<path d="M154.57 95.3213H1.95378C0.877675 95.3213 0 94.444 0 93.3683C0 92.2927 0.877675 91.4154 1.95378 91.4154H154.57C155.646 91.4154 156.524 92.2927 156.524 93.3683C156.524 94.444 155.646 95.3213 154.57 95.3213Z" fill="#EBEBF2"/>
<path d="M154.57 109.305H1.95378C0.877675 109.305 0 108.427 0 107.352C0 106.276 0.877675 105.399 1.95378 105.399H154.57C155.646 105.399 156.524 106.276 156.524 107.352C156.524 108.427 155.646 109.305 154.57 109.305Z" fill="#EBEBF2"/>
<path d="M154.57 123.296H1.95378C0.877675 123.296 0 122.419 0 121.343C0 120.267 0.877675 119.39 1.95378 119.39H154.57C155.646 119.39 156.524 120.267 156.524 121.343C156.524 122.419 155.646 123.296 154.57 123.296Z" fill="#EBEBF2"/>
<path d="M154.57 137.287H1.95378C0.877675 137.287 0 136.41 0 135.334C0 134.258 0.877675 133.381 1.95378 133.381H154.57C155.646 133.381 156.524 134.258 156.524 135.334C156.524 136.41 155.646 137.287 154.57 137.287Z" fill="#EBEBF2"/>
<path d="M154.57 151.271H1.95378C0.877675 151.271 0 150.393 0 149.318C0 148.242 0.877675 147.365 1.95378 147.365H154.57C155.646 147.365 156.524 148.242 156.524 149.318C156.524 150.393 155.646 151.271 154.57 151.271Z" fill="#EBEBF2"/>
<path d="M155.066 250.925C219.788 250.925 272.255 245.972 272.255 239.863C272.255 233.754 219.788 228.802 155.066 228.802C90.3445 228.802 37.8774 233.754 37.8774 239.863C37.8774 245.972 90.3445 250.925 155.066 250.925Z" fill="#EBEBF2"/>
<path d="M189.021 240.451H121.104L132.781 206.785H177.344L189.021 240.451Z" fill="url(#paint0_linear_1_953)"/>
<path d="M46.242 104.377H263.89V212.11C263.89 218.556 258.655 223.782 252.213 223.782H57.9189C51.4699 223.782 46.242 218.549 46.242 212.11V104.377Z" fill="url(#paint1_linear_1_953)"/>
<path d="M57.9189 70.9093H252.206C258.655 70.9093 263.882 76.1426 263.882 82.5813V196.158H46.242V82.5813C46.242 76.135 51.4775 70.9093 57.9189 70.9093Z" fill="#3D3D89"/>
<path d="M255.51 82.6957H54.9882V184.135H255.51V82.6957Z" fill="url(#paint2_linear_1_953)"/>
<path style="mix-blend-mode:multiply" d="M155.066 214.871C158.564 214.871 161.401 212.037 161.401 208.54C161.401 205.043 158.564 202.208 155.066 202.208C151.568 202.208 148.732 205.043 148.732 208.54C148.732 212.037 151.568 214.871 155.066 214.871Z" fill="url(#paint3_linear_1_953)"/>
<path d="M206.719 240.451H103.413C103.413 236.987 106.222 234.172 109.694 234.172H200.446C203.911 234.172 206.727 236.98 206.727 240.451H206.719Z" fill="url(#paint4_linear_1_953)"/>
<path d="M252.824 265.008C279.05 265.008 300.31 261.968 300.31 258.218C300.31 254.468 279.05 251.428 252.824 251.428C226.598 251.428 205.338 254.468 205.338 258.218C205.338 261.968 226.598 265.008 252.824 265.008Z" fill="#EBEBF2"/>
<path d="M276.582 150.798H229.065C225.318 150.798 222.281 153.834 222.281 157.58V248.812C222.281 252.557 225.318 255.594 229.065 255.594H276.582C280.329 255.594 283.367 252.557 283.367 248.812V157.58C283.367 153.834 280.329 150.798 276.582 150.798Z" fill="#4B4BA0"/>
<path d="M283.367 158.091H222.281V247.866H283.367V158.091Z" fill="url(#paint5_linear_1_953)"/>
<g filter="url(#filter0_d_1_953)">
<path d="M268.034 181.206H237.621C233.874 181.206 230.836 184.242 230.836 187.988V218.388C230.836 222.134 233.874 225.17 237.621 225.17H268.034C271.781 225.17 274.819 222.134 274.819 218.388V187.988C274.819 184.242 271.781 181.206 268.034 181.206Z" fill="url(#paint6_linear_1_953)"/>
</g>
<g filter="url(#filter1_d_1_953)">
<path d="M252.824 220.021C243.543 220.021 235.988 212.468 235.988 203.192C235.988 193.915 243.543 186.363 252.824 186.363C262.104 186.363 269.66 193.915 269.66 203.192C269.66 212.468 262.104 220.021 252.824 220.021ZM252.824 189.468C245.253 189.468 239.101 195.624 239.101 203.192C239.101 210.76 245.26 216.908 252.824 216.908C260.387 216.908 266.546 210.752 266.546 203.192C266.546 195.632 260.387 189.468 252.824 189.468Z" fill="white"/>
<path d="M251.61 209.592L245.726 204.412L248.191 201.613L251.259 204.313L257.12 197.623L259.929 200.072L251.61 209.592Z" fill="white"/>
</g>
<path d="M260.479 161.653H245.169C242.811 161.653 240.895 159.738 240.895 157.381H264.752C264.752 159.738 262.837 161.653 260.479 161.653Z" fill="#4B4BA0"/>
<path opacity="0.15" d="M258.349 158.091H247.298C246.901 158.091 246.588 157.77 246.588 157.381C246.588 156.984 246.909 156.672 247.298 156.672H258.349C258.738 156.672 259.059 156.992 259.059 157.381C259.059 157.778 258.738 158.091 258.349 158.091Z" fill="white"/>
<g filter="url(#filter2_d_1_953)">
<path d="M207.971 60.2977H87.8667C84.1195 60.2977 81.0819 63.3341 81.0819 67.0796V139.667C81.0819 143.413 84.1195 146.449 87.8667 146.449H207.971C211.718 146.449 214.756 143.413 214.756 139.667V67.0796C214.756 63.3341 211.718 60.2977 207.971 60.2977Z" fill="url(#paint7_linear_1_953)"/>
</g>
<path d="M207.971 67.0796H87.8667V139.667H207.971V67.0796Z" fill="#3D3D89"/>
<path d="M113.167 76.7758H100.673V78.4617H113.167V76.7758Z" fill="#FFC700"/>
<path d="M142.687 76.7758H117.12V78.4617H142.687V76.7758Z" fill="#FFC700"/>
<path d="M118.471 83.6111H105.977V85.2971H118.471V83.6111Z" fill="white"/>
<path d="M195.477 83.6111H122.424V85.2971H195.477V83.6111Z" fill="#1E9AFF"/>
<path d="M118.471 89.9583H105.977V91.6442H118.471V89.9583Z" fill="white"/>
<path d="M195.477 89.9583H122.424V91.6442H195.477V89.9583Z" fill="#1E9AFF"/>
<path d="M118.471 96.3054H105.977V97.9913H118.471V96.3054Z" fill="white"/>
<path d="M195.477 96.3054H122.424V97.9913H195.477V96.3054Z" fill="#1E9AFF"/>
<path d="M118.471 102.645H105.977V104.331H118.471V102.645Z" fill="white"/>
<path d="M113.167 109.358H100.673V111.044H113.167V109.358Z" fill="#FFC700"/>
<path d="M142.687 109.358H117.12V111.044H142.687V109.358Z" fill="#FFC700"/>
<path d="M169.529 116.194H122.424V117.88H169.529V116.194Z" fill="white"/>
<path d="M169.529 122.541H122.424V124.227H169.529V122.541Z" fill="white"/>
<path d="M118.463 122.541H114.319V124.227H118.463V122.541Z" fill="#1E9AFF"/>
<path d="M118.471 128.888H105.977V130.574H118.471V128.888Z" fill="#1E9AFF"/>
<path d="M169.529 128.888H122.424V130.574H169.529V128.888Z" fill="white"/>
<path d="M196.011 116.194H172.925V117.88H196.011V116.194Z" fill="white"/>
<path d="M196.011 122.541H172.925V124.227H196.011V122.541Z" fill="white"/>
<path d="M196.011 128.888H172.925V130.574H196.011V128.888Z" fill="white"/>
<path d="M195.477 102.645H122.424V104.331H195.477V102.645Z" fill="#1E9AFF"/>
<g filter="url(#filter3_d_1_953)">
<path d="M59.285 94.1999H20.5834C16.8362 94.1999 13.7986 97.2362 13.7986 100.982V139.667C13.7986 143.413 16.8362 146.449 20.5834 146.449H59.285C63.0322 146.449 66.0698 143.413 66.0698 139.667V100.982C66.0698 97.2362 63.0322 94.1999 59.285 94.1999Z" fill="url(#paint8_linear_1_953)"/>
</g>
<g filter="url(#filter4_d_1_953)">
<path d="M51.9812 120.298C51.9812 119.474 51.8973 118.665 51.737 117.887L55.7743 115.553L51.9889 109.007L47.9592 111.334C46.7381 110.243 45.2956 109.396 43.7082 108.87V104.232H36.1449V108.87C35.4352 109.106 34.7635 109.396 34.1225 109.755C34.0461 109.793 33.9698 109.839 33.8935 109.885C33.8172 109.93 33.7409 109.968 33.6645 110.014C33.0387 110.396 32.4434 110.831 31.8863 111.326L27.8643 109.007L24.0788 115.553L28.1009 117.872C27.9482 118.597 27.8643 119.337 27.849 120.069C27.849 120.16 27.849 120.244 27.849 120.336C27.849 120.42 27.849 120.504 27.849 120.595C27.8643 121.328 27.9482 122.06 28.1009 122.792L24.0788 125.112L27.8643 131.657L31.8863 129.338C33.1379 130.452 34.588 131.276 36.1449 131.787V136.433H43.7082V131.771C44.4638 131.52 45.2041 131.184 45.9215 130.772C46.6541 130.345 47.3257 129.857 47.9363 129.315L51.9889 131.649L55.7743 125.104L51.7217 122.77C51.8897 121.969 51.9736 121.145 51.9736 120.298H51.9812ZM44.8911 125.63C44.8911 125.63 44.8225 125.691 44.7919 125.722C44.6622 125.836 44.5248 125.951 44.3874 126.058C44.3264 126.111 44.2577 126.157 44.189 126.202C44.0745 126.286 43.9601 126.363 43.8456 126.439C43.754 126.5 43.6548 126.553 43.5632 126.614C43.464 126.668 43.3724 126.721 43.2732 126.775C43.1511 126.836 43.0213 126.897 42.8992 126.958C42.8229 126.988 42.7466 127.026 42.6779 127.057C42.5176 127.126 42.3497 127.187 42.1818 127.24C42.136 127.255 42.0979 127.27 42.0521 127.278C41.3805 127.484 40.6783 127.591 39.938 127.591C35.916 127.591 32.6495 124.333 32.6495 120.305C32.6495 119.321 32.8479 118.383 33.199 117.529C33.2143 117.49 33.2295 117.452 33.2524 117.407C33.3211 117.254 33.3898 117.109 33.4661 116.964C33.5119 116.873 33.5653 116.781 33.6188 116.689C33.6722 116.598 33.7256 116.514 33.779 116.422C33.8706 116.285 33.9546 116.148 34.0538 116.018C34.0767 115.98 34.1072 115.949 34.1301 115.911C34.6949 115.179 35.4123 114.538 36.2594 114.042C39.7472 112.028 44.1966 113.226 46.2115 116.705C46.5778 117.338 46.8373 118.009 46.9976 118.688C47.0052 118.734 47.0128 118.772 47.0281 118.818C47.0663 118.993 47.0968 119.161 47.1197 119.337C47.1273 119.42 47.1426 119.497 47.1502 119.581C47.1655 119.718 47.1731 119.855 47.1807 120C47.1807 120.107 47.1807 120.222 47.1807 120.328C47.1807 120.443 47.1807 120.55 47.1807 120.664C47.1807 120.801 47.1655 120.939 47.1502 121.076C47.1426 121.16 47.1349 121.236 47.1197 121.32C47.0968 121.496 47.0663 121.663 47.0281 121.839C47.0205 121.885 47.0128 121.923 46.9976 121.969C46.8373 122.647 46.5778 123.319 46.2115 123.952C45.8451 124.585 45.3949 125.15 44.8835 125.623L44.8911 125.63Z" fill="white"/>
</g>
<g filter="url(#filter5_d_1_953)">
<path d="M119.646 158.35H67.3825C63.6354 158.35 60.5977 161.386 60.5977 165.132V197.035C60.5977 200.781 63.6354 203.817 67.3825 203.817H119.646C123.393 203.817 126.431 200.781 126.431 197.035V165.132C126.431 161.386 123.393 158.35 119.646 158.35Z" fill="url(#paint9_linear_1_953)"/>
</g>
<g filter="url(#filter6_d_1_953)">
<path d="M83.9973 170.358L71.6106 181.084L83.9973 191.802V185.989L78.3191 181.084L83.9973 176.171V170.358Z" fill="white"/>
<path d="M103.039 191.802L115.433 181.084L103.039 170.358V176.171L108.717 181.084L103.039 185.989V191.802Z" fill="white"/>
<path d="M92.3238 195.304H87.073L94.7202 166.864H99.9633L92.3238 195.304Z" fill="white"/>
</g>
<g filter="url(#filter7_d_1_953)">
<path d="M295.692 33.3377H236.644C232.897 33.3377 229.859 36.374 229.859 40.1196V99.1433C229.859 102.889 232.897 105.925 236.644 105.925H295.692C299.44 105.925 302.477 102.889 302.477 99.1433V40.1196C302.477 36.374 299.44 33.3377 295.692 33.3377Z" fill="url(#paint10_linear_1_953)"/>
</g>
<g filter="url(#filter8_d_1_953)">
<path d="M284.161 56.2468C282.665 56.2468 281.245 56.5825 279.978 57.1775C278.238 50.9677 272.545 46.4133 265.775 46.4133C259.006 46.4133 253.495 50.8228 251.656 56.88C250.572 56.468 249.405 56.2468 248.184 56.2468C242.75 56.2468 238.346 60.6486 238.346 66.0803H293.998C293.998 60.6486 289.594 56.2468 284.161 56.2468Z" fill="white"/>
<path d="M255.938 82.627L266.172 92.8572L276.406 82.627H269.507V70.5583H262.829V82.627H255.938Z" fill="white"/>
</g>
<g filter="url(#filter9_d_1_953)">
<path d="M59.285 30.0573H20.5834C16.8362 30.0573 13.7986 33.0937 13.7986 36.8393V75.5247C13.7986 79.2702 16.8362 82.3066 20.5834 82.3066H59.285C63.0322 82.3066 66.0698 79.2702 66.0698 75.5247V36.8393C66.0698 33.0937 63.0322 30.0573 59.285 30.0573Z" fill="url(#paint11_linear_1_953)"/>
</g>
<path d="M59.8956 36.229H19.9728V76.135H59.8956V36.229Z" fill="#3D3D89"/>
<path d="M30.3981 43.995H26.7271V45.681H30.3981V43.995Z" fill="white"/>
<path d="M51.1036 43.995H32.3213V45.681H51.1036V43.995Z" fill="#1E9AFF"/>
<path d="M32.4358 49.6632H26.7271V51.3491H32.4358V49.6632Z" fill="white"/>
<path d="M53.1413 49.6632H34.3591V51.3491H53.1413V49.6632Z" fill="#1E9AFF"/>
<path d="M30.3981 60.3205H26.7271V62.0065H30.3981V60.3205Z" fill="white"/>
<path d="M51.1036 60.3205H32.3213V62.0065H51.1036V60.3205Z" fill="#1E9AFF"/>
<path d="M32.4358 65.9811H26.7271V67.667H32.4358V65.9811Z" fill="white"/>
<path d="M53.1413 65.9811H34.3591V67.667H53.1413V65.9811Z" fill="#1E9AFF"/>
<path d="M29.0472 55.3313H23.3385V57.0173H29.0472V55.3313Z" fill="white"/>
<path d="M56.5299 55.3313H30.9628V57.0173H56.5299V55.3313Z" fill="#1E9AFF"/>
<g style="mix-blend-mode:multiply">
<path d="M171.795 156.923H156.486V172.227H171.795V156.923Z" fill="#A7C8FF"/>
</g>
<g style="mix-blend-mode:multiply">
<path d="M194.035 156.923H178.725V172.227H194.035V156.923Z" fill="#A7C8FF"/>
</g>
<g style="mix-blend-mode:multiply">
<path d="M216.282 156.923H200.972V172.227H216.282V156.923Z" fill="#A7C8FF"/>
</g>
<g style="mix-blend-mode:multiply">
<path d="M246.772 115.354H223.685V117.04H246.772V115.354Z" fill="#A7C8FF"/>
</g>
<g style="mix-blend-mode:multiply">
<path d="M246.772 121.694H223.685V123.38H246.772V121.694Z" fill="#A7C8FF"/>
</g>
<g style="mix-blend-mode:multiply">
<path d="M246.772 128.041H223.685V129.727H246.772V128.041Z" fill="#A7C8FF"/>
</g>
<defs>
<filter id="filter0_d_1_953" x="220.176" y="179.436" width="65.303" height="65.2845" filterUnits="userSpaceOnUse" color-interpolation-filters="sRGB">
<feFlood flood-opacity="0" result="BackgroundImageFix"/>
<feColorMatrix in="SourceAlpha" type="matrix" values="0 0 0 0 0 0 0 0 0 0 0 0 0 0 0 0 0 0 127 0" result="hardAlpha"/>
<feOffset dy="8.89"/>
<feGaussianBlur stdDeviation="5.33"/>
<feColorMatrix type="matrix" values="0 0 0 0 0.0666667 0 0 0 0 0.447059 0 0 0 0 0.835294 0 0 0 0.4 0"/>
<feBlend mode="normal" in2="BackgroundImageFix" result="effect1_dropShadow_1_953"/>
<feBlend mode="normal" in="SourceGraphic" in2="effect1_dropShadow_1_953" result="shape"/>
</filter>
<filter id="filter1_d_1_953" x="228.488" y="182.613" width="48.6722" height="48.6581" filterUnits="userSpaceOnUse" color-interpolation-filters="sRGB">
<feFlood flood-opacity="0" result="BackgroundImageFix"/>
<feColorMatrix in="SourceAlpha" type="matrix" values="0 0 0 0 0 0 0 0 0 0 0 0 0 0 0 0 0 0 127 0" result="hardAlpha"/>
<feOffset dy="3.75"/>
<feGaussianBlur stdDeviation="3.75"/>
<feColorMatrix type="matrix" values="0 0 0 0 0.117647 0 0 0 0 0.521569 0 0 0 0 1 0 0 0 0.4 0"/>
<feBlend mode="normal" in2="BackgroundImageFix" result="effect1_dropShadow_1_953"/>
<feBlend mode="normal" in="SourceGraphic" in2="effect1_dropShadow_1_953" result="shape"/>
</filter>
<filter id="filter2_d_1_953" x="70.4219" y="58.5277" width="154.994" height="107.472" filterUnits="userSpaceOnUse" color-interpolation-filters="sRGB">
<feFlood flood-opacity="0" result="BackgroundImageFix"/>
<feColorMatrix in="SourceAlpha" type="matrix" values="0 0 0 0 0 0 0 0 0 0 0 0 0 0 0 0 0 0 127 0" result="hardAlpha"/>
<feOffset dy="8.89"/>
<feGaussianBlur stdDeviation="5.33"/>
<feColorMatrix type="matrix" values="0 0 0 0 0.117647 0 0 0 0 0.521569 0 0 0 0 1 0 0 0 0.4 0"/>
<feBlend mode="normal" in2="BackgroundImageFix" result="effect1_dropShadow_1_953"/>
<feBlend mode="normal" in="SourceGraphic" in2="effect1_dropShadow_1_953" result="shape"/>
</filter>
<filter id="filter3_d_1_953" x="3.13857" y="92.4299" width="73.5913" height="73.5693" filterUnits="userSpaceOnUse" color-interpolation-filters="sRGB">
<feFlood flood-opacity="0" result="BackgroundImageFix"/>
<feColorMatrix in="SourceAlpha" type="matrix" values="0 0 0 0 0 0 0 0 0 0 0 0 0 0 0 0 0 0 127 0" result="hardAlpha"/>
<feOffset dy="8.89"/>
<feGaussianBlur stdDeviation="5.33"/>
<feColorMatrix type="matrix" values="0 0 0 0 0.117647 0 0 0 0 0.521569 0 0 0 0 1 0 0 0 0.4 0"/>
<feBlend mode="normal" in2="BackgroundImageFix" result="effect1_dropShadow_1_953"/>
<feBlend mode="normal" in="SourceGraphic" in2="effect1_dropShadow_1_953" result="shape"/>
</filter>
<filter id="filter4_d_1_953" x="16.5788" y="100.482" width="46.6955" height="47.201" filterUnits="userSpaceOnUse" color-interpolation-filters="sRGB">
<feFlood flood-opacity="0" result="BackgroundImageFix"/>
<feColorMatrix in="SourceAlpha" type="matrix" values="0 0 0 0 0 0 0 0 0 0 0 0 0 0 0 0 0 0 127 0" result="hardAlpha"/>
<feOffset dy="3.75"/>
<feGaussianBlur stdDeviation="3.75"/>
<feColorMatrix type="matrix" values="0 0 0 0 0.117647 0 0 0 0 0.521569 0 0 0 0 1 0 0 0 0.4 0"/>
<feBlend mode="normal" in2="BackgroundImageFix" result="effect1_dropShadow_1_953"/>
<feBlend mode="normal" in="SourceGraphic" in2="effect1_dropShadow_1_953" result="shape"/>
</filter>
<filter id="filter5_d_1_953" x="49.9377" y="156.58" width="87.1533" height="66.7874" filterUnits="userSpaceOnUse" color-interpolation-filters="sRGB">
<feFlood flood-opacity="0" result="BackgroundImageFix"/>
<feColorMatrix in="SourceAlpha" type="matrix" values="0 0 0 0 0 0 0 0 0 0 0 0 0 0 0 0 0 0 127 0" result="hardAlpha"/>
<feOffset dy="8.89"/>
<feGaussianBlur stdDeviation="5.33"/>
<feColorMatrix type="matrix" values="0 0 0 0 0.117647 0 0 0 0 0.521569 0 0 0 0 1 0 0 0 0.4 0"/>
<feBlend mode="normal" in2="BackgroundImageFix" result="effect1_dropShadow_1_953"/>
<feBlend mode="normal" in="SourceGraphic" in2="effect1_dropShadow_1_953" result="shape"/>
</filter>
<filter id="filter6_d_1_953" x="64.1106" y="163.114" width="58.8227" height="43.44" filterUnits="userSpaceOnUse" color-interpolation-filters="sRGB">
<feFlood flood-opacity="0" result="BackgroundImageFix"/>
<feColorMatrix in="SourceAlpha" type="matrix" values="0 0 0 0 0 0 0 0 0 0 0 0 0 0 0 0 0 0 127 0" result="hardAlpha"/>
<feOffset dy="3.75"/>
<feGaussianBlur stdDeviation="3.75"/>
<feColorMatrix type="matrix" values="0 0 0 0 0.117647 0 0 0 0 0.521569 0 0 0 0 1 0 0 0 0.4 0"/>
<feBlend mode="normal" in2="BackgroundImageFix" result="effect1_dropShadow_1_953"/>
<feBlend mode="normal" in="SourceGraphic" in2="effect1_dropShadow_1_953" result="shape"/>
</filter>
<filter id="filter7_d_1_953" x="219.199" y="31.5677" width="93.938" height="93.9076" filterUnits="userSpaceOnUse" color-interpolation-filters="sRGB">
<feFlood flood-opacity="0" result="BackgroundImageFix"/>
<feColorMatrix in="SourceAlpha" type="matrix" values="0 0 0 0 0 0 0 0 0 0 0 0 0 0 0 0 0 0 127 0" result="hardAlpha"/>
<feOffset dy="8.89"/>
<feGaussianBlur stdDeviation="5.33"/>
<feColorMatrix type="matrix" values="0 0 0 0 0.117647 0 0 0 0 0.521569 0 0 0 0 1 0 0 0 0.4 0"/>
<feBlend mode="normal" in2="BackgroundImageFix" result="effect1_dropShadow_1_953"/>
<feBlend mode="normal" in="SourceGraphic" in2="effect1_dropShadow_1_953" result="shape"/>
</filter>
<filter id="filter8_d_1_953" x="230.846" y="42.6633" width="70.6523" height="61.4439" filterUnits="userSpaceOnUse" color-interpolation-filters="sRGB">
<feFlood flood-opacity="0" result="BackgroundImageFix"/>
<feColorMatrix in="SourceAlpha" type="matrix" values="0 0 0 0 0 0 0 0 0 0 0 0 0 0 0 0 0 0 127 0" result="hardAlpha"/>
<feOffset dy="3.75"/>
<feGaussianBlur stdDeviation="3.75"/>
<feColorMatrix type="matrix" values="0 0 0 0 0.117647 0 0 0 0 0.521569 0 0 0 0 1 0 0 0 0.4 0"/>
<feBlend mode="normal" in2="BackgroundImageFix" result="effect1_dropShadow_1_953"/>
<feBlend mode="normal" in="SourceGraphic" in2="effect1_dropShadow_1_953" result="shape"/>
</filter>
<filter id="filter9_d_1_953" x="3.13857" y="28.2873" width="73.5913" height="73.5693" filterUnits="userSpaceOnUse" color-interpolation-filters="sRGB">
<feFlood flood-opacity="0" result="BackgroundImageFix"/>
<feColorMatrix in="SourceAlpha" type="matrix" values="0 0 0 0 0 0 0 0 0 0 0 0 0 0 0 0 0 0 127 0" result="hardAlpha"/>
<feOffset dy="8.89"/>
<feGaussianBlur stdDeviation="5.33"/>
<feColorMatrix type="matrix" values="0 0 0 0 0.117647 0 0 0 0 0.521569 0 0 0 0 1 0 0 0 0.4 0"/>
<feBlend mode="normal" in2="BackgroundImageFix" result="effect1_dropShadow_1_953"/>
<feBlend mode="normal" in="SourceGraphic" in2="effect1_dropShadow_1_953" result="shape"/>
</filter>
<linearGradient id="paint0_linear_1_953" x1="132.582" y1="206.983" x2="177.523" y2="251.943" gradientUnits="userSpaceOnUse">
<stop offset="0.23" stop-color="#A7C8FF"/>
<stop offset="0.45" stop-color="#AACAFF"/>
<stop offset="0.67" stop-color="#B6D2FF"/>
<stop offset="0.89" stop-color="#CAE0FF"/>
<stop offset="1" stop-color="#D8E9FF"/>
</linearGradient>
<linearGradient id="paint1_linear_1_953" x1="72.4959" y1="78.1337" x2="237.559" y2="243.266" gradientUnits="userSpaceOnUse">
<stop stop-color="#D8E9FF"/>
<stop offset="1" stop-color="#A7C8FF"/>
</linearGradient>
<linearGradient id="paint2_linear_1_953" x1="79.7539" y1="57.948" x2="230.689" y2="208.946" gradientUnits="userSpaceOnUse">
<stop stop-color="#562BFF"/>
<stop offset="1" stop-color="#7DA5FF"/>
</linearGradient>
<linearGradient id="paint3_linear_1_953" x1="150.586" y1="204.062" x2="159.542" y2="213.021" gradientUnits="userSpaceOnUse">
<stop stop-color="#A7C8FF"/>
<stop offset="1" stop-color="#D8E9FF"/>
</linearGradient>
<linearGradient id="paint4_linear_1_953" x1="128.583" y1="212.682" x2="181.519" y2="265.64" gradientUnits="userSpaceOnUse">
<stop stop-color="#A7C8FF"/>
<stop offset="1" stop-color="#73ABFF"/>
</linearGradient>
<linearGradient id="paint5_linear_1_953" x1="215.099" y1="165.277" x2="290.517" y2="240.726" gradientUnits="userSpaceOnUse">
<stop stop-color="#562BFF"/>
<stop offset="1" stop-color="#7DA5FF"/>
</linearGradient>
<linearGradient id="paint6_linear_1_953" x1="232.82" y1="183.197" x2="272.818" y2="223.211" gradientUnits="userSpaceOnUse">
<stop stop-color="#35FFFF" stop-opacity="0.5"/>
<stop offset="1" stop-color="#35E6BB"/>
</linearGradient>
<linearGradient id="paint7_linear_1_953" x1="94.9415" y1="50.4184" x2="200.851" y2="156.373" gradientUnits="userSpaceOnUse">
<stop stop-color="#35C9E2" stop-opacity="0.5"/>
<stop offset="1" stop-color="#35E6BB"/>
</linearGradient>
<linearGradient id="paint8_linear_1_953" x1="15.7905" y1="96.191" x2="64.0653" y2="144.486" gradientUnits="userSpaceOnUse">
<stop stop-color="#35C9E2" stop-opacity="0.5"/>
<stop offset="1" stop-color="#35E6BB"/>
</linearGradient>
<linearGradient id="paint9_linear_1_953" x1="67.6725" y1="155.253" x2="119.342" y2="206.936" gradientUnits="userSpaceOnUse">
<stop stop-color="#35C9E2" stop-opacity="0.5"/>
<stop offset="1" stop-color="#35E6BB"/>
</linearGradient>
<linearGradient id="paint10_linear_1_953" x1="231.851" y1="35.3288" x2="300.464" y2="103.971" gradientUnits="userSpaceOnUse">
<stop stop-color="#35C9E2" stop-opacity="0.5"/>
<stop offset="1" stop-color="#35E6BB"/>
</linearGradient>
<linearGradient id="paint11_linear_1_953" x1="15.7905" y1="32.0408" x2="64.0653" y2="80.3358" gradientUnits="userSpaceOnUse">
<stop stop-color="#35C9E2" stop-opacity="0.5"/>
<stop offset="1" stop-color="#35E6BB"/>
</linearGradient>
</defs>
</svg>
