<svg width="15" height="17" viewBox="0 0 15 17" fill="none" xmlns="http://www.w3.org/2000/svg">
<path d="M9.25723 7.98084C8.57594 8.31729 7.81584 8.46171 7.05863 8.39857C6.51962 8.35556 5.99432 8.20693 5.51267 7.96117C4.67404 7.53516 4.00374 6.83858 3.61027 5.9842C3.2168 5.12982 3.1232 4.16765 3.34463 3.25346C3.56605 2.33926 4.08954 1.52656 4.83034 0.946908C5.57114 0.367258 6.4859 0.054595 7.42651 0.0595364C8.36713 0.0644779 9.27855 0.386734 10.0132 0.974135C10.7479 1.56154 11.2628 2.3797 11.4746 3.29617C11.6864 4.21264 11.5827 5.17377 11.1803 6.02397C10.7779 6.87417 10.1003 7.56367 9.25723 7.98084Z" fill="white"/>
<path d="M7.39538 8.47033C7.27967 8.47033 7.16974 8.47033 7.05633 8.45644C6.50968 8.41294 5.97692 8.26235 5.48839 8.01325C4.63743 7.58216 3.95692 6.87642 3.55709 6.01033C3.15726 5.14425 3.06153 4.16854 3.2854 3.24126C3.50927 2.31397 4.03963 1.48943 4.79058 0.901166C5.54153 0.312907 6.46908 -0.00460837 7.42299 5.05484e-05C8.3769 0.00470946 9.30131 0.331269 10.0465 0.926836C10.7916 1.5224 11.3139 2.35209 11.5287 3.28152C11.7435 4.21094 11.6383 5.18567 11.23 6.04781C10.8217 6.90995 10.1344 7.60901 9.27923 8.03177C8.69346 8.32115 8.04873 8.47124 7.39538 8.47033ZM7.4058 0.112192C6.47866 0.111035 5.57823 0.422578 4.85005 0.99646C4.12187 1.57034 3.60851 2.37302 3.39295 3.27475C3.17738 4.17648 3.27222 5.12456 3.66212 5.96572C4.05202 6.80689 4.7142 7.49198 5.54162 7.91026C6.01638 8.1527 6.53421 8.29936 7.06559 8.34188C7.66145 8.39075 8.2608 8.30934 8.82202 8.1033C9.38325 7.89725 9.89291 7.57152 10.3156 7.14872C10.7383 6.72592 11.0639 6.21618 11.2698 5.6549C11.4757 5.09362 11.5569 4.49425 11.5079 3.89841C11.4245 2.9256 11.0001 2.01352 10.3097 1.32311C9.61931 0.632709 8.70724 0.208352 7.73443 0.124921C7.6245 0.112192 7.52151 0.112192 7.4058 0.112192Z" fill="white"/>
<path d="M13.8315 10.7094C13.7898 10.6909 13.7482 10.6712 13.7054 10.6539C13.6625 10.6365 13.6278 10.6226 13.5896 10.6087C13.2563 10.4853 12.9036 10.4226 12.5482 10.4236C11.9396 10.4242 11.3454 10.6094 10.8442 10.9547C10.3431 11.3 9.95838 11.7892 9.74101 12.3577C9.52365 12.9262 9.48381 13.5472 9.62676 14.1388C9.76971 14.7304 10.0887 15.2648 10.5417 15.6713L10.5868 15.7118L10.6389 15.7558C8.71547 16.5936 6.54475 16.6656 4.57007 15.9569C2.59539 15.2483 0.965719 13.8126 0.0138859 11.9429L0 11.9152L0.0162002 11.8885C0.904302 10.3783 2.23827 9.1802 3.83481 8.45874L3.86837 8.44485L3.89614 8.46684C4.76102 9.19101 5.82998 9.62781 6.9545 9.71657C8.36604 9.83196 9.76752 9.39701 10.8657 8.50271L10.8946 8.47957L10.927 8.49577C12.0445 9.01388 13.0356 9.76928 13.8315 10.7094Z" fill="white"/>
<path d="M13.8639 12.4532C13.8812 12.4775 13.8998 12.503 13.9171 12.5296C13.8998 12.503 13.8859 12.4775 13.8639 12.4532Z" fill="white"/>
<path d="M14.4887 13.1047H14.1555C14.1141 12.8983 14.0332 12.7018 13.9171 12.5262C13.8998 12.4995 13.8812 12.4741 13.8639 12.4498C13.8824 12.4741 13.8998 12.4995 13.9171 12.525L14.1485 12.2936C14.0209 12.1147 13.8645 11.9583 13.6857 11.8307L13.4543 12.0621C13.2628 11.9351 13.0467 11.85 12.8201 11.8122L12.878 11.8226V11.494C12.6612 11.457 12.4398 11.457 12.223 11.494V11.8261L12.2809 11.8157C12.0543 11.8534 11.8382 11.9386 11.6468 12.0656L11.4153 11.8342C11.2365 11.9618 11.0801 12.1182 10.9525 12.297L11.1839 12.5285C11.0676 12.704 10.9866 12.9005 10.9455 13.1071H10.61C10.5729 13.3242 10.5729 13.546 10.61 13.7632H10.9432C10.9847 13.9696 11.0656 14.166 11.1816 14.3417L10.9502 14.5732C11.0777 14.7521 11.2341 14.9085 11.413 15.036L11.6445 14.8046C11.8359 14.9316 12.052 15.0168 12.2786 15.0545C12.2589 15.0545 12.2392 15.0476 12.2207 15.0441V15.3774C12.4375 15.4144 12.6589 15.4144 12.8757 15.3774V15.0395C12.8572 15.0395 12.8375 15.0476 12.8178 15.0499C13.0444 15.0121 13.2605 14.927 13.4519 14.8L13.6834 15.0314C13.8623 14.9039 14.0187 14.7474 14.1462 14.5685L13.9148 14.3371C14.036 14.153 14.1191 13.9464 14.159 13.7296C14.1595 13.74 14.1595 13.7504 14.159 13.7608H14.4922C14.5107 13.6527 14.52 13.5431 14.52 13.4334C14.5188 13.3231 14.5084 13.2132 14.4887 13.1047ZM13.3073 13.7319C13.3041 13.7418 13.3003 13.7515 13.2957 13.7608C13.2132 13.9505 13.0618 14.1018 12.8722 14.1844L12.8444 14.1959C12.6517 14.2712 12.4377 14.2712 12.245 14.1959L12.2173 14.1844C12.0321 14.1013 11.8845 13.9524 11.803 13.7666C11.7984 13.7573 11.7946 13.7476 11.7914 13.7377C11.7162 13.5454 11.7162 13.3318 11.7914 13.1395C11.7948 13.1296 11.7986 13.12 11.803 13.1105C11.8859 12.9212 12.0371 12.77 12.2265 12.687L12.2543 12.6754C12.447 12.6002 12.661 12.6002 12.8537 12.6754L12.8815 12.687C13.0708 12.77 13.222 12.9212 13.305 13.1105C13.3093 13.12 13.3132 13.1296 13.3165 13.1395C13.3873 13.3312 13.384 13.5425 13.3073 13.7319Z" fill="white"/>
<path d="M13.9171 12.5285C13.8998 12.5019 13.8812 12.4764 13.8639 12.4521C13.8859 12.4776 13.8998 12.503 13.9171 12.5285Z" fill="white"/>
</svg>
