<svg width="229" height="134" viewBox="0 0 229 134" fill="none" xmlns="http://www.w3.org/2000/svg">
<path d="M169.964 0.354427C168.355 0.834964 165.576 3.46747 165.2 4.86729C164.991 5.66122 164.552 5.99551 163.278 6.35069C162.4 6.55962 160.959 6.95658 160.123 7.14462C159.329 7.35355 157.804 7.89676 156.759 8.33551L154.879 9.12944L152.999 8.29373C150.408 7.16551 148.172 7.24908 145.811 8.52355C142.928 10.1323 141.696 12.2007 141.654 15.4809C141.654 17.1941 141.884 18.5939 142.364 19.6386C143.075 21.122 143.075 21.2055 142.364 23.0441C141.487 25.2796 141.278 33.8666 142.155 34.7441C142.385 34.9739 142.636 35.4545 142.636 35.7888C142.636 37.7109 148.59 43.6236 152.476 45.5875L153.709 46.2352L153.981 51.542C154.294 57.2667 154.545 59.4604 154.983 59.4604C155.109 59.4604 156.738 57.2667 158.619 54.5924C163.612 47.447 163.57 47.4888 165.618 47.4888C170.298 47.4888 176.211 45.4204 180.765 42.1402C187.952 36.9797 191.588 28.2255 189.645 20.913C188.6 17.0061 187.409 15.0003 184.171 11.8455C181.935 9.69355 181.016 8.48176 181.016 7.81319C181.016 6.45515 180.055 4.2614 178.739 2.73622C176.733 0.333535 173.307 -0.585753 169.943 0.37532L169.964 0.354427ZM175.96 5.91194C177.402 8.27283 176.315 11.2187 173.766 11.9918C171.05 12.7857 168.376 10.3621 168.898 7.52069C169.17 5.80747 169.692 5.15979 171.217 4.53301C172.847 3.82265 175.124 4.49122 175.981 5.93283L175.96 5.91194ZM165.054 11.2187C165.054 12.3052 167.853 15.063 169.65 15.7316C172.011 16.6091 175.333 16.2957 177.13 15.0421C177.84 14.5198 178.53 13.9557 178.572 13.8095C179.177 12.4096 183.084 15.6898 184.693 18.97C185.487 20.5996 185.612 21.4771 185.612 25.0916C185.612 28.9359 185.529 29.4791 184.463 31.6938C182.834 34.974 178.822 38.9227 175.396 40.615C171.802 42.4118 169.17 43.1013 165.096 43.2893L161.69 43.4565L160.332 45.1697C158.41 47.6142 157.888 47.6142 157.888 45.1279C157.888 43.937 157.72 43.0804 157.449 43.0804C156.258 43.0804 151.494 40.239 149.614 38.4004C146.731 35.6007 145.77 33.3652 145.77 29.2493C145.728 27.4943 145.937 25.5304 146.208 24.8618C146.689 23.7336 146.773 23.7127 149.635 23.7127C152.267 23.7127 152.79 23.5873 154.315 22.5218C156.759 20.8086 157.908 18.3641 157.783 15.2511C157.7 13.893 157.783 12.6603 157.95 12.4932C158.117 12.3678 159.183 11.8873 160.353 11.4903C162.902 10.6546 165.075 10.5293 165.075 11.2605L165.054 11.2187ZM151.703 12.2634C154.064 13.705 154.419 16.5882 152.455 18.5312C151.745 19.2416 151.056 19.4923 149.656 19.4923C147.149 19.4923 145.853 18.2596 145.853 15.7734C145.853 13.705 146.501 12.7021 148.298 12.0544C150.136 11.365 150.303 11.365 151.703 12.2634Z" fill="#193389"/>
<path d="M176.942 26.3659C174.351 29.1238 170.507 31.61 167.519 32.5293C165.012 33.2397 159.684 33.4486 156.174 32.9681C154.628 32.7591 153.855 32.9959 153.855 33.6784C153.855 35.2036 155.297 35.6006 161.042 35.6006C165.514 35.6006 166.307 35.4752 168.835 34.5142C172.68 33.0308 174.623 31.7981 177.422 29.2491C180.097 26.742 180.619 25.6974 179.658 24.7781C179.094 24.214 178.864 24.3393 176.942 26.3868V26.3659Z" fill="#193389"/>
<path d="M38.4847 22.083L37.5654 22.7307V39.9047C37.5654 51.2913 37.4401 57.0577 37.1685 57.0577C36.9386 57.0577 36.082 56.6608 35.2463 56.1385C30.9215 53.5477 27.704 52.6702 22.0629 52.6702C13.4341 52.6702 6.7484 56.6608 3.07126 64.0569C1.1909 67.8594 0 73.6049 0 78.9326C0 83.1739 0.229822 84.5737 1.83857 90.0894C3.67715 96.3991 8.39894 101.434 14.1863 103.356C18.0306 104.589 18.8663 104.714 23.212 104.547C28.3725 104.338 31.1722 103.544 34.6404 101.225C35.7895 100.473 36.9177 99.8255 37.1476 99.8255C37.3565 99.8255 37.5445 100.431 37.5445 101.142C37.5445 103.336 37.8161 103.419 45.5674 103.419C51.4801 103.419 52.7546 103.294 53.2769 102.771C53.841 102.207 53.9246 98.0078 53.9246 62.4899C53.9246 26.972 53.8828 22.7307 53.2351 22.2502C52.7546 21.8532 50.8324 21.6443 45.9644 21.5607C40.3233 21.4354 39.216 21.5189 38.4429 22.083H38.4847ZM30.0231 66.6894C32.384 67.4415 34.5777 68.6533 36.1029 70.0531L37.5863 71.4112V78.3685C37.5863 86.3705 37.5863 86.3287 33.9092 88.7105C30.0231 91.2594 26.6384 91.5937 23.1284 89.8387C19.6184 88.0837 17.8216 84.1558 17.8634 78.3685C17.8634 74.6496 18.5111 72.3722 20.099 69.9695C22.2091 66.8147 26.2833 65.4985 30.044 66.6894H30.0231Z" fill="#193389"/>
<path d="M71.8924 31.7147C67.6094 33.0309 65.1858 38.3586 66.9826 42.579C68.2988 45.8174 70.7851 47.447 74.2533 47.447C77.1365 47.447 78.9333 46.7367 80.563 44.9608C82.1717 43.2058 82.7149 41.8059 82.7149 39.4868C82.7149 35.6425 80.5629 32.6966 76.9903 31.652C74.5876 30.9416 74.2742 30.9416 71.8715 31.6938L71.8924 31.7147Z" fill="#193389"/>
<path d="M111.088 53.2553C105.781 54.5297 102.292 56.3265 99.1368 59.4396C92.6182 65.9999 90.4662 78.8282 94.0598 89.4835C95.585 93.871 99.0114 98.2377 102.73 100.473C105.217 101.957 109.395 103.503 112.968 104.192C116.478 104.903 125.671 104.506 129.306 103.503C133.735 102.27 138.248 99.7837 138.248 98.5928C138.248 98.1541 135.762 92.2832 134.446 89.6089C133.485 87.6868 132.252 87.3734 129.975 88.5225C127.426 89.8387 123.414 91.0087 121.513 91.0087C113.804 90.9252 109.082 85.5766 109.562 77.4283C109.876 72.1842 112.195 68.5071 116.123 67.0446C119.967 65.6447 123.435 66.0835 129.16 68.716C131.876 69.9487 131.918 69.9487 132.67 69.1965C133.631 68.2355 136.305 61.0065 136.556 58.8128C136.723 57.4129 136.598 57.0996 135.762 56.5354C134.404 55.6579 129.014 53.8612 125.692 53.2135C122.265 52.524 114.054 52.5658 111.108 53.2553H111.088Z" fill="#193389"/>
<path d="M200.572 53.2552C198.044 53.9447 195.892 54.9684 194.179 56.3265C192.256 57.8099 191.901 57.7263 191.734 55.9713C191.525 53.6522 190.731 53.4223 183.189 53.5268C178.425 53.6104 176.587 53.7984 176.106 54.2163C175.458 54.6968 175.417 57.977 175.417 93.6203C175.417 129.264 175.5 132.544 176.064 133.024C176.503 133.379 178.592 133.547 183.105 133.672C189.331 133.797 190.731 133.588 191.504 132.439C191.671 132.209 191.818 124.855 191.818 116.101C191.818 105.592 191.943 100.243 192.215 100.243C192.444 100.243 193.301 100.64 194.137 101.163C195.537 102.04 198.253 103.168 201.449 104.192C203.371 104.798 209.89 104.714 212.669 104.067C220.733 102.103 226.207 96.1065 228.38 86.851C229.299 82.7769 229.174 73.8974 228.15 69.5517C226.625 63.3674 223.199 58.2068 218.874 55.7206C215.071 53.485 211.812 52.6911 206.881 52.7329C204.395 52.7747 201.575 53.0045 200.572 53.297V53.2552ZM205.565 67.0445C208.553 68.319 210.162 70.4501 211.248 74.5242C212.167 77.9924 211.896 81.6278 210.371 85.6392C209.326 88.4806 205.502 91.0296 202.306 91.0296C199.109 91.0296 193.322 88.2299 192.235 86.2033C192.006 85.8063 191.839 82.4426 191.839 78.6818C191.839 71.9752 191.839 71.8917 192.883 70.6799C196.08 66.8356 201.554 65.2895 205.586 67.0445H205.565Z" fill="#193389"/>
<path d="M67.9437 53.7357C66.3349 54.2998 66.3349 54.3834 66.3349 78.6609C66.3349 99.4702 66.4185 102.207 66.9826 102.75C67.5049 103.273 68.7376 103.398 74.3787 103.398C78.2857 103.398 81.5241 103.231 81.9628 103.001C82.6732 102.604 82.715 101.873 82.715 78.6191V54.6759L81.8375 54.07C81.1271 53.5477 79.7691 53.4223 74.7339 53.4641C71.3283 53.4641 68.2571 53.5895 67.9437 53.6939V53.7357Z" fill="#193389"/>
<path d="M147.253 54.4669L146.25 55.428V78.3266C146.25 95.9811 146.376 101.455 146.773 102.228L147.295 103.231L154.524 103.356C160.708 103.44 161.836 103.356 162.4 102.834C162.965 102.228 163.048 99.6374 163.048 78.6609C163.048 57.6844 162.965 55.0937 162.4 54.5296C161.168 53.2551 160.395 53.8193 157.282 58.2903C155.568 60.7348 154.002 62.6152 153.813 62.4898C153.605 62.3227 153.458 60.7348 153.458 58.8962C153.458 57.0577 153.291 55.0937 153.061 54.5505C152.706 53.5894 152.455 53.5059 150.471 53.5059C148.632 53.5059 148.068 53.673 147.274 54.5087L147.253 54.4669Z" fill="#193389"/>
</svg>
