<svg width="20" height="20" viewBox="0 0 20 20" fill="none" xmlns="http://www.w3.org/2000/svg">
<path d="M17.7785 13.0611C17.3342 12.6159 16.7048 12.3932 16.0754 12.5045C15.446 12.5787 14.8907 12.9498 14.5945 13.5064L13.891 14.7309C13.817 14.8793 13.6689 14.9535 13.5208 14.9907C13.3727 15.0278 13.2246 14.9535 13.1135 14.8422L5.19044 6.90139C5.07937 6.79007 5.04234 6.64164 5.04234 6.49321C5.07937 6.34479 5.15341 6.19636 5.30152 6.12215L6.52328 5.41712C7.07864 5.12027 7.44885 4.56367 7.52292 3.93287C7.59699 3.30208 7.41185 2.67127 6.96756 2.22599L5.37554 0.630415C4.96827 0.222235 4.41294 -0.000378363 3.8576 0.0367159C3.30226 0.0738102 2.7469 0.333565 2.41368 0.778839L1.52512 1.85491C-0.659267 4.4895 -0.474138 8.27421 1.93239 10.6863L9.30008 18.0705C10.5959 19.3692 12.2619 20 13.9279 20C15.4089 20 16.8898 19.4805 18.1115 18.4787L19.1852 17.5881C19.6295 17.2171 19.8886 16.6976 19.9256 16.141C19.9627 15.5844 19.7405 15.0278 19.3333 14.6196L17.7785 13.0611Z" fill="white"/>
<path d="M10.7442 0.704839C13.0396 0.704839 15.187 1.59539 16.816 3.22806C18.4451 4.86073 19.3336 7.01301 19.3336 9.31347C19.3336 9.499 19.4817 9.64741 19.6668 9.64741C19.8519 9.64741 20 9.49899 20 9.31347C20 6.8273 19.0374 4.48979 17.2974 2.74574C15.5573 0.964642 13.2247 0 10.7443 0C10.5592 0 10.4111 0.148425 10.4111 0.333944C10.4111 0.519463 10.5591 0.704839 10.7442 0.704839Z" fill="white"/>
<path d="M16.6679 8.68272C16.6679 8.86825 16.816 9.01666 17.0011 9.01666C17.1862 9.01666 17.3343 8.86824 17.3343 8.68272C17.3343 7.08714 16.7049 5.5658 15.5572 4.41545C14.4095 3.2651 12.9285 2.63435 11.3367 2.63435H11.2996C11.1145 2.63435 10.9664 2.78278 10.9664 2.9683C10.9664 3.15382 11.1145 3.30224 11.2996 3.30224H11.3367C12.7435 3.30224 14.0763 3.85885 15.0759 4.8607C16.1126 5.89967 16.6679 7.23552 16.6679 8.68272Z" fill="white"/>
<path d="M11.5958 5.6399C11.5958 5.82543 11.7439 5.97384 11.929 5.97384C12.4843 5.97384 13.0397 6.19648 13.4099 6.60464C13.8172 7.01282 14.0393 7.53228 14.0393 8.08888C14.0393 8.27441 14.1874 8.42283 14.3725 8.42283C14.5576 8.42283 14.7057 8.2744 14.7057 8.08888C14.7057 7.34676 14.4095 6.64173 13.8912 6.08515C13.3729 5.56566 12.6694 5.26881 11.8919 5.26881C11.7438 5.26881 11.5958 5.41726 11.5958 5.6399Z" fill="white"/>
</svg>
