<svg width="20" height="21" viewBox="0 0 20 21" fill="none" xmlns="http://www.w3.org/2000/svg">
<path fill-rule="evenodd" clip-rule="evenodd" d="M18.7779 18.1329C18.5381 18.6759 18.2036 19.1638 17.7723 19.5796C14.9469 22.3032 9.00788 20.9923 4.50793 16.6544C0.00798992 12.3166 -1.3519 6.59147 1.4735 3.86785C1.90699 3.45209 2.41089 3.12967 2.97421 2.89846C3.54853 2.66301 4.20207 2.85816 4.53434 3.36725L7.01866 7.15995C7.22991 7.48449 7.18369 7.89389 6.90204 8.1654L4.90402 10.0914C4.63116 10.3545 4.57615 10.7511 4.77419 11.0736C6.03285 13.146 8.1453 15.1845 10.2973 16.3978C10.6318 16.5866 11.0433 16.5357 11.3162 16.2726L13.3142 14.3466C13.5958 14.0751 14.0205 14.0305 14.3572 14.2342L18.2916 16.629C18.8197 16.9493 19.0222 17.5793 18.7779 18.1329ZM19.7109 9.42539C19.2774 7.67965 18.3554 6.02511 16.9449 4.66754C15.5366 3.30785 13.8203 2.42119 12.0093 2.00119C11.4174 1.86331 10.8167 1.77847 10.2159 1.74241C10.0597 1.73392 9.93427 1.61938 9.91667 1.47089L9.75603 0.272414C9.73843 0.145142 9.64821 0.0454457 9.52059 0.0115065C9.39076 -0.0224327 9.26313 0.0199914 9.17951 0.121809L6.87563 3.0024C6.76781 3.13816 6.79421 3.33543 6.93284 3.43937L9.92107 5.65814C10.0267 5.73663 10.1631 5.74723 10.2797 5.68147C10.3942 5.61784 10.4558 5.49905 10.4382 5.37178L10.2951 4.31542C10.2819 4.21573 10.315 4.12664 10.3876 4.05451C10.4602 3.98451 10.5548 3.9527 10.6582 3.96542C10.9333 4.00148 11.2061 4.05027 11.4768 4.11179C12.8917 4.44057 14.2362 5.13633 15.3452 6.20541C16.4542 7.2745 17.1782 8.57055 17.5171 9.93448C17.8427 11.2475 17.8141 12.6305 17.429 13.9372C17.3828 14.0984 17.4753 14.2681 17.6403 14.319L19.1762 14.8005C19.262 14.8281 19.3456 14.8196 19.4271 14.7793C19.5063 14.7369 19.5613 14.6754 19.5855 14.5905C20.0938 12.9126 20.1334 11.1266 19.7109 9.42539Z" fill="white"/>
</svg>
