<svg width="20" height="20" viewBox="0 0 20 20" fill="none" xmlns="http://www.w3.org/2000/svg">
<path d="M17.7785 13.0611C17.3342 12.6159 16.7048 12.3932 16.0754 12.5045C15.446 12.5787 14.8907 12.9498 14.5945 13.5064L13.891 14.7309C13.817 14.8793 13.6689 14.9535 13.5208 14.9907C13.3727 15.0278 13.2246 14.9535 13.1135 14.8422L5.19044 6.90139C5.07937 6.79007 5.04234 6.64164 5.04234 6.49321C5.07937 6.34479 5.15341 6.19636 5.30152 6.12215L6.52328 5.41712C7.07864 5.12027 7.44885 4.56367 7.52292 3.93287C7.59699 3.30208 7.41185 2.67127 6.96756 2.22599L5.37554 0.630415C4.96827 0.222235 4.41294 -0.000378363 3.8576 0.0367159C3.30226 0.0738102 2.7469 0.333565 2.41368 0.778839L1.52512 1.85491C-0.659267 4.4895 -0.474138 8.27421 1.93239 10.6863L9.30008 18.0705C10.5959 19.3692 12.2619 20 13.9279 20C15.4089 20 16.8898 19.4805 18.1115 18.4787L19.1852 17.5881C19.6295 17.2171 19.8886 16.6976 19.9256 16.141C19.9627 15.5844 19.7405 15.0278 19.3333 14.6196L17.7785 13.0611Z" fill="white"/>
</svg>
